<svg width="16" height="16" viewBox="0 0 16 16" fill="none" xmlns="http://www.w3.org/2000/svg">
<path d="M12.4011 11.3073L15.7143 14.6197L14.6197 15.7143L11.3073 12.4011C10.0748 13.3891 8.54175 13.9265 6.96212 13.9242C3.11903 13.9242 0 10.8052 0 6.96212C0 3.11903 3.11903 0 6.96212 0C10.8052 0 13.9242 3.11903 13.9242 6.96212C13.9265 8.54175 13.3891 10.0748 12.4011 11.3073ZM10.8493 10.7333C11.8311 9.72368 12.3793 8.37035 12.3771 6.96212C12.3771 3.96996 9.95352 1.54714 6.96212 1.54714C3.96996 1.54714 1.54714 3.96996 1.54714 6.96212C1.54714 9.95352 3.96996 12.3771 6.96212 12.3771C8.37035 12.3793 9.72368 11.8311 10.7333 10.8493L10.8493 10.7333V10.7333Z" fill="white" fill-opacity="0.7"/>
</svg>
